/* XPM */
static char *_4ebfaa340734948abe8abb19323f3f65MjrAaXCcz8JGsDN[] = {
/* columns rows colors chars-per-pixel */
"64 64 256 2 ",
"   c #361514",
".  c #342324",
"X  c #581A0C",
"o  c #561B16",
"O  c #4A1715",
"+  c #661C11",
"@  c #592719",
"#  c #4B2316",
"$  c #672617",
"%  c #792A18",
"&  c #783518",
"*  c #652912",
"=  c #552E29",
"-  c #673726",
";  c #773727",
":  c #693128",
">  c #461A23",
",  c #7B5539",
"<  c #714831",
"1  c #7F623C",
"2  c #7A5A45",
"3  c #744E40",
"4  c #7C6E53",
"5  c #8D3316",
"6  c #AB3917",
"7  c #893A27",
"8  c #993B23",
"9  c #B93E24",
"0  c #B1471D",
"q  c #8A472A",
"w  c #974829",
"e  c #964C33",
"r  c #8A5639",
"t  c #985738",
"y  c #904F30",
"u  c #A64726",
"i  c #B9562B",
"p  c #A45938",
"a  c #B3512F",
"s  c #9A653E",
"d  c #B86639",
"f  c #AD6638",
"g  c #934219",
"h  c #D45514",
"j  c #C85A28",
"k  c #CA572B",
"l  c #C86738",
"z  c #D26C35",
"x  c #E87537",
"c  c #855D43",
"v  c #876849",
"b  c #976A47",
"n  c #996E51",
"m  c #997556",
"M  c #957652",
"N  c #A66947",
"B  c #A8754B",
"V  c #B97548",
"C  c #A87955",
"Z  c #B47B54",
"A  c #B66D45",
"S  c #A97F62",
"D  c #9D6C53",
"F  c #C67A48",
"G  c #C57B56",
"H  c #CF7243",
"J  c #E37744",
"K  c #C57F60",
"L  c #EC933A",
"P  c #D5893D",
"I  c #AB845A",
"U  c #B78759",
"Y  c #B98854",
"T  c #9B8666",
"R  c #A78964",
"E  c #B78B66",
"W  c #AD9567",
"Q  c #BC9264",
"!  c #B6956A",
"~  c #B89B76",
"^  c #AD9473",
"/  c #BDA37C",
"(  c #BAA578",
")  c #B9A06D",
"_  c #9F815D",
"`  c #C8854A",
"'  c #D78A4A",
"]  c #CB8B5C",
"[  c #C98756",
"{  c #D58A58",
"}  c #CA965B",
"|  c #D9955A",
" . c #DB9449",
".. c #E89649",
"X. c #F59C49",
"o. c #E99B58",
"O. c #F49C56",
"+. c #E68A4C",
"@. c #FCAA4C",
"#. c #F8A449",
"$. c #EBA259",
"%. c #FBA454",
"&. c #FCAB54",
"*. c #F6A85A",
"=. c #FDB35B",
"-. c #FCBB5C",
";. c #FBB555",
":. c #F7AB49",
">. c #C78B62",
",. c #D28C63",
"<. c #C79668",
"1. c #D89967",
"2. c #C59D75",
"3. c #D49B73",
"4. c #E69D64",
"5. c #E69D70",
"6. c #CEA46C",
"7. c #DBA469",
"8. c #C4A47B",
"9. c #C5AA7C",
"0. c #CBAC7C",
"q. c #CAA575",
"w. c #D3AD7C",
"e. c #D7A976",
"r. c #D6B27A",
"t. c #CEB17C",
"y. c #E8A768",
"u. c #F6AA65",
"i. c #FCB463",
"p. c #FDBB63",
"a. c #FBBC6B",
"s. c #F6B46A",
"d. c #E7AB75",
"f. c #ECB374",
"g. c #EDB47C",
"h. c #E4B779",
"j. c #F2B473",
"k. c #F5BB73",
"l. c #F6BA79",
"z. c #F0AF6F",
"x. c #FDC35C",
"c. c #FDC55B",
"v. c #FDC464",
"b. c #FDCB64",
"n. c #FCC56A",
"m. c #FCCB6B",
"M. c #FDD46B",
"N. c #FBC472",
"B. c #FCCC73",
"V. c #FCCC7B",
"C. c #F8C379",
"Z. c #FDD374",
"A. c #FDD47B",
"S. c #FDDB7C",
"D. c #FCDB74",
"F. c #E9C37D",
"G. c #FDE37E",
"H. c #B29A83",
"J. c #BAA685",
"K. c #B9AE91",
"L. c #C4AC83",
"P. c #CAAD83",
"I. c #C7AA88",
"U. c #CBB38B",
"Y. c #C9B488",
"T. c #D4B484",
"R. c #D2B48B",
"E. c #D4BC8D",
"W. c #DBB887",
"Q. c #C5AE93",
"!. c #CBB593",
"~. c #CCBD9A",
"^. c #C7B995",
"/. c #D4BC93",
"(. c #DABD93",
"). c #D3BD9A",
"_. c #D6B794",
"`. c #D3AD84",
"'. c #E9BA86",
"]. c #F2BB83",
"[. c #E7B88D",
"{. c #CFBCA3",
"}. c #C89780",
"|. c #CDC39D",
" X c #C9C49E",
".X c #D4C39C",
"XX c #DBC49C",
"oX c #D8C598",
"OX c #D7C28E",
"+X c #E8C38A",
"@X c #F7C888",
"#X c #FCD482",
"$X c #FDDB84",
"%X c #FDD98B",
"&X c #E3C394",
"*X c #E8C998",
"=X c #F5CA95",
"-X c #FDDC93",
";X c #F8D497",
":X c #EDD195",
">X c #FDE388",
",X c #FDE394",
"<X c #FDE89A",
"1X c #FDF19C",
"2X c #CCC4A4",
"3X c #CBC6AA",
"4X c #D3C5A3",
"5X c #D4CAA3",
"6X c #DBCAA4",
"7X c #D4CBAB",
"8X c #DACCAB",
"9X c #D6C5A6",
"0X c #DAD2AB",
"qX c #CBCCB6",
"wX c #D6CDB5",
"eX c #CCD3B7",
"rX c #D8D4B7",
"tX c #E6CBA4",
"yX c #E8D3AB",
"uX c #F5D8A9",
"iX c #E8D7B6",
"pX c #F5DBB6",
"aX c #F7CFA9",
"sX c #FDEBA3",
"dX c #FCE8AA",
"fX c #FDF2A9",
"gX c #FBE9B7",
"hX c #FCF4B3",
"jX c #FCF4BC",
"kX c #FDF9BD",
"lX c #FDFAB2",
"zX c #EDE3B9",
"xX c #CCD7C5",
"cX c #D4D5C4",
"vX c #D7D9C7",
"bX c #D4D9CF",
"nX c #ECDDC8",
"mX c #D5E3D7",
"MX c #D3E0CD",
"NX c #FAEAC7",
"BX c #FCF4C3",
"VX c #FDFAC4",
"CX c #FDF4CB",
"ZX c #FDFCCB",
"AX c #F6EBD6",
"SX c #FDFDD3",
"DX c #FEFDDC",
"FX c #FBF3D7",
"GX c #EAE3CE",
"HX c #FEFEE4",
"JX c #FEFEEB",
"KX c #F9F4E6",
"LX c #FEFEF4",
"PX c #FEFFFD",
"IX c #F8F6F1",
"UX c #F5EDE0",
/* pixels */
"[ } 6.| o.u.u.%.=.a.-.v.v.m.A.-X%X,XgXBXVXhXCXSXFXSXCXCXFXCXtX*X[.uXSXHXJXJXJXDXHXHXHXCXgXgX<X;X#XV.C.k.h.:.-.:. .} 4.o.{ } ` B ",
"} | | y.4.%.%.$.*.i.x.c.b.v.B.%X%X,XjXjXhXBXBXSXZXCXBXNXCX} 6.d.B 1.+XgXHXJXJXSXDXHXJXSXBXgXdX%XB.V.C.k.v.;.$. .$.o.| 1.[ V F V ",
"` { 4.o.y.%.@.#.;.-.;.-.b.B.B.$X$X>XdXsXdXCXZXSXCXjXZXNX[ t < q.= . s h.NXJXJXKXJXDXHXSXBXgXgX-XA.@XN.k.y.s.s.X.:. ...L ` ` ` A ",
"[  .| | o.X.#.@.#.;.m.v.b.V.V.#X-X,X,XdXBXBXSXHXSXBXDX(.d ;   q & - * Y &XHXDXJXHXDXJXDXCXNXdX-XA.V.C.N.n.$.*...#.+...P ` ' F A ",
"U  ...$.y.X.&.@.@.=.b.b.b.B.Z.%X-X,X1XsXjXjXSXSXBXjXZX'.t C { V [ { <.N } HXHXHXJXSXHXJXgXkXgX-X>X%XV.a.k.*.X.u.O.L +.L ` ` G Z ",
"} 1.$.o.$.$.#.%.=.p.x.c.b.A.B.%X$X>X<XhXjXSXSXVXCXSXkXd C @X{ y.{ H aX}.A DXLXHXHXDXDXDXBXjXgX-X,X-X#XN.v.;.&.$.L ..+.+.{ P F E ",
"[ y.$...u.u.%.=.=.&.x.b.m.#XA.%X%X$X1XkXfXZXZXZXZXVXgXf e.| | r.y.l g.2.p CXPXJXHXJXSXVXDXVXgX,X-X-XV.n.-.:.&.@.L %.| ' P ' [ ] ",
"} | 7.o.%.#.*.&.@.@.x.b.b.V.#X#X$X,XhXdXsXZXVXVXBXkXdXp 1.H H y.1.l ' 6.w iXPXDXDXHXDXHXDXVXjX%X$X-XA.N.p.-.:.#.O.O.o.....' ` A ",
"} 1.o.@.X.O.&.p.=.;.c.b.b.Z.#XA.>X>XhXfXjXkXfXBXkXSX:X8 F H z ,.{ l H V e *XLXDXLXLXJXLXCXBXVX<X-X#X#XN.v.a.@.@.#.X.O.O. .] <.F ",
"' ..X.$.%.O.%.i.-.m.;.v.m.b.A.S.G.G.1XZXBXjXSXSXZXVXW.g <.B ` d.1.A b R X [.PXHXLXLXDXHXCXBXgXdX;X@XZ.B.N.=.#.%.@.u.u.o.{ [ ,.Z ",
"' o.L $.%.i.&.&.@.-.;.v.c.b.%X>X$X>XfXVXVXVXZXSXZXVXh.A B m Q =X*X3.T C < W.LXSXHXHXHXJXDXDXdX;X%X#XN.A.n.;.*.&.@.u.i.O.| { F G ",
" ...4.4.O.&.&.@.=.;.-.c.c.M.%X>X>X<XkXVXjXlXlXZXZXZXy.w Z I I @Xd.v n N 7 [.JXDXDXHXHXDXDXDXgXdXuX#XZ.m.B.=.&.=.&.O.*.y.| ' [ V ",
"..$.O.$.%.&.i.&.-.;.;.b.Z.B.$X$XhXsXgXkXkXZXkXZXSXVX7.w p . = u % . . r @ E JXJXHXHXHXSXDXSXhX<X<XS.>XZ.n.-.*.u.u.u.u.$.| ` { U ",
"..o.#.#.*.&.i.&.x.c.c.c.m.Z.#X$XsXsXBXkXkXSXSXZXSXSX} f l l N u & B p F 3 N JXLXJXJXLXDXVXhXZXfX,XM.S.D.B.-.i.&.X.O.*.O.4.| [ G ",
"P ..O.X.*.&.&.p.p.v.b.;.v.Z.S.$XjXjXfXSXVXZXSXVXZXZXY w k h 0 6 0 h z d - Z BXHXJXPXLXHXSXZXCXdX-XD.M.B.N.p.i.@.X.%.O.4.#.o.| F ",
"+.o.u.&.@.i.i.;.p.-.-.c.b.D.Z.$XhXDXkXZXZXVXZXZXVXVXy & 0 h z 0 0 z j 6 . s BXDXHXLXHXDXZXVXhXsXuXD.M.m.n.&.=.p.%...$.$.$.1.{ ] ",
"..o.$.&.&.&.u.@.-.-.;.b.M.M.D.$X>XhXlXZXSXSXDXZXVXgX& % 5 h z u a x k 5 O < NXJXHXLXSXSXFXkXVX<X<XS.M.b.B.v.=.s.:.+.%.*.e.1.} ] ",
"o.o.y.u.u.%.%.&.-.-.v.b.M.b.D.G.1XhXVXJXDXDXSXZXZX&Xg q 6 h x i d x 6 + : & aXHXJXHXZXJXSX,XsXsX,XA.D.B.m.N.&.*.X.O.X.].[.[ ,.1.",
"o...] C.O.=.=.-.i.=.c.b.M.Z.D.>X,XVXZXZXSXDXSXZXSX6.5 $ 5 k k X $ J 6 O : q +XHXHXJXLXHXSXSXsXdX-XA.Z.Z.N.p.&.u.u.X.4.].d <.F ] ",
"{ 1.G 1.k.&.i.i.p.n.b.c.b.D.S.>X1XkXDXkXSXHXDXVXZX} 7 X % 9 + 5 + % w O # e '.DXHXJXLXDXDXCXjXhX1X>X>Xc.n.p.i.s.i.*.].,.F ,.l ] ",
"{ ,.7.H =X@X&.p.-.v.A.b.c.M.A.>XsXkXjXSXZXDXZXZXBX1.7 O % 5 5 9 5 o ; + # e W.HXJXJXHXHXDXsX1XdX-XD.A.B.v.p.v.*.u.@Xg.l G 1.F Z ",
"[ { 5.d +.uXl.a.=.-.c.v.M.D.D.>XfXZXSXZXVXVXVXSXBX| : O o + u G H 5 $ o o q 3.HXLXJXDXHXDXhXfXdX<XA.A.A.v.n.v.N.C.l.j A G 1.N ; ",
"E ,.5.,.h l.;Xi.p.-.p.b.M.M.G.>X1XkXZXVXVXZXZXZXjX[ + O > X 8 w a 7 $   = t ,.pXJXLXJXHXJXZXjXsX,XG.m.B.C.a.n.V.;X+.i f H 3.t ; ",
"Z ] 5.,.k +.=Xi.p.x.b.b.M.D.G.>XhXSXkXZXDXDXZXZXgXF + o O X + X o : o   - F F g.DXJXJXDXHXCXjX,X-XZ.m.A.N.N.N.V.l.d w 5.f 1.y e ",
"N Z 5.5.k z ].C.n.N.Z.v.b.m.S.S.fXkXVXZXSXSXVXVX@XF & o X X + o > + o > O G G F NXJXSXDXSXkXZXhX,XS.m.B.V.V.B.@X].y.4.d.p `.e Z ",
"G p F '.y.5.@XC.B.n.c.b.M.A.>X>X>XfXDXDXVXZXVX:Xd V ; o + + o $ : o % o   < e.d aXJXHXDXVXVXVXhX<XZ.S.N.#X#XV.;X;X@Xy.d.N e Z 3.",
"y.t p g.l.].@XC.n.v.b.n.Z.A.Z.$X<XkXSXZXVXSXSX[.w e ; O 5 5 X * O $ 8 O =   <.t W.DXSXSXVXVXVXfXsXZ.D.N.#X#X=XpX@X@X5.,.q q d.[ ",
"O.{ 7 { j.l.l.=XN.m.p.n.B.A.$X>X<XkXVXVXDXZXSX=Xd ; =   $ i $ q $ u a O >   n q 2.HXSXDXBXkXVX1X%XS.Z.B.V.].NXgXd.k u 8 q e.f.{ ",
"..u.{ e i G +.;XNXV.b.n.n.A.$X$XsXlXlXVXZXVXBX7.& - #   X h j j i j u   . = < $ ,.DXDXDXZXkXhX1XsXA.B.B.B.#XAX;XJ 7 t [ f.s.7.` ",
"$.$.a.y.F 7 J @XvXpXm.N.B.Z.A.>X<XhXkXlXhXzXLX(.5 - o   5 0 h x h j u o O = m # U NXZXSXVXkXjXkXsXA.Z.V.B.uXnX@XA q 7.l.y.y.7.[ ",
"y.*.s.v.a.p z l.=XAX#Xb.B.D.Z.>XfXhXgXgXLXJXnXn * < @ % k i j z l k a e : = = - <.AXSXVXVXVXVXgX<XA.A.N.].IXtXu.a q u.s.$.s.7.[ ",
"$.*.k.C.C.N 0 u.@XIXpXb.B.m.Z.>XsX<XAXIX{.W b < < < < k j 0 k j l i a a 7 ; - c N AXPXIXZXhXkXgX,X#XD.m.NXIX[.{ w p u.z.$.k.7.` ",
"$.j.l.s.].K 9 J j.UXPX%XA.B.A.B.>XjXSX6.f B I b , I.A k l k l i i i l i p C r s f s {.PXPXHXfXhX<XA.V.FXLXJX5.H 7 Z i.j.s.y.| { ",
"u.u.u.s.s.`.a x o.KXPXuXn.D.Z.D.:XCX:X` W R t.I R *XL.d l l l f l z l d P.Q.~ Y.0.E N Q AXPXgX%X$X-.pXAXFXLX3.l 7 3.u.z.u.7.1.Y ",
"$.$.u.s.@X&Xc k o.KXLXNXuX@X-X*XKXiX7.} ! W 0.) 8.XX).( Y d z z z A >.U..X|.5X8X6XR.Q B U.LXLXNX#XpXgX_.KXJX`.u r `.u.l.u.| 1.<.",
"y.s.i.i.V.tXp 9 { KXJXAXAXAXvXGX6XrX} Y <.Q 9.OXU..X~.U.I.E A z [ ~.^.5X.X/..X6X.X/.P.8.yXiXKXGXKXAXnXyXKXKX`.7 b ~ i.z.$.| } Q ",
"y.u.a.n.l.yXB 6 5.KXKXAX*XPX{.FX6X;XY U Q Q t.XX).9X~.).w.R.Z b .X2X!.9X.XY.U.OXXX.X).L.nX&XNXGXAX(.AXFXAXNXI.e n ( y.f.y.y.1.<.",
"7.$.C.C.@X4XZ 5 ,.FXDXnXiXAXFXgX:XF.t.) ) Y t.0X!.6XL.6XiX!.R.).|.7X.XwX.XE.Y.OXE.~.!.L.0XR.NXtXtXpXAXFXpXpXI.r C ^ y.y.7.| ] [ ",
"z.y.k.N.@X).<.8 3.AXNXNXpXiX;XFX%Xr.F.P.t.Y t.XXL.8X~.E.iX{.0..X~..X8XcX7X XP.Y.!.3X!.Q.9XP.uXtXiXuXgXNX*X:XQ.C ! ^ d.$.d.| [ [ ",
"y.f.s.a.=X_.q.u 3.pXiXaXGXiX@XdX;Xt.OXE.t.B Y..XP.8X2X5X8XtX~ 9.^.0X9XcXrX.XP.0.U.eXQ.4XL.8.zXFXiXtXNX6X*XoXQ.! J.R e.u.d.y.] >.",
"d.f.s.a.'.W.h.f 6.&XtX*XAXwX+XF.tXt.OXOX( s OXoXT.7X4XrX5XiXI.<.7XwXwXeXwX|.L.9. XxXI.3XJ.! pXDXpXyXNX_.tX/.Q.I.Q.T 9.z.7.7.<.[ ",
"f.f.j.B.+XOX+XV 6.r.&X*XKX).q.T.XX0.r.t.) B OX.XU.0X5X7X2XrXiX8XvXrXvXqXqX~.!.OX XcXL. XJ.I.W OXNXpXAX_.(.!.K.4X!.R / $.y.y.7.>.",
"f.g.@XV.+XOX+X1.r.6.oXuXFX_.yXOXXXY.OXq.t.B OX7XY.7X|..X4X9XiXvXrXcXvXvXxX2X/.~.qXvXJ.^.~ >.).8XgXiXNXXX(.J.^.yX.X^ J.h.f.1.>.<.",
"g.j.s.k.W.+X+Xe.r.r.T.uXJXP.'.h.oXR OXQ 9.B |.wXU.5X!.OX2X.XrXvXcXvXcXbXxX~.).Y.2XbX( L.^ U P.SXW.nXNX9XOX~ K.yX6X~ H.W.d.1.} 1.",
"d.j.j.k.(.r.+X:Xr.h.q.*XDXP.6.F.Y._ OXY 9.I E.2XK.6X/.E.0X5X7XvXvXcXxXxXqX3XU.Y.3XcX! U.! U.I W.I.NXpX(.E.^ K.iX5X( J.r.y.1.d.1.",
"y.j.s.C.(.w.+XdXr.e.6.OXNXU.<.6.W T 5XI L.W U.2XI.yX).U.7XrX7XzXcXbXxXqXqX{.L..XxXqXE !.Z 6XJ.! {.aX*X*X9._ K.iX4X/ H.`.1.y.7.] ",
"y.].s.N.(.P.:XgXT.e.6.W.=X).m m W T 0XY 9.! L.^.P.rX.XU.2XvXvXMXxXqXcX2XqX3X!.3XmXwXE Q.B oX).R 8XR.R.XX~ B L.iX9X( J.I.j.1.] 1.",
"5.y.k.N.(.T.:X;Xr.r.<.T.h.tXr _ ( M rXI Y.! ( K.Y.rX(.T.6XrXvXmXxXxX3X2XqX3X~.3XmX7XL.Q.b P.^.nXyX0.w.oX/ B J.iX8X/ ~ ~ y.7.| 3.",
"y.j.u.l.W.w.=X:Xr.w.6.t.r.OX( q.M m vXW Y.! ( ^.9.rXoXT..X6XrXMXxXeX2XqXqX3X3X3XbX2XL.J.b U.T ^.P.w.P.R.U.C J.iXoX( ! J.j.y.7.>.",
"g.u.a.l.T.0.=X:Xr.e.6.t.h.} 0XOXW M rXI P.~ 9.Y.t.rX^.q.oX6X8XrXMX X3XeXxXqXeX3XxX2XY.~ s J.!.R ! ! 8.U.U.I / iX.XJ.E K.f.y.5.<.",
"g.j.l.l.R.W.;X:Xe.6.r.r.e.Y 8.zXS v 0XI 9.~ U.K.0.0X Xq.OX.X*XrXMX3XxXqXqXqXeXqXcX2X2.E b C U.iXiXL.R 8.!.R 8.iX.XJ.I J.h.f.d.>.",
"d.g.a.k./.T.#Xr.e.6.6.t.r.Y N M < M .XU 0.8.0.Y.0.0X7XP./.oXtX0XMXeXxXK.xXqXqX3XqX~.8.R b b b J._.{.U.!.L.^ ^.pX.X( Z J.'.j.g.1.",
"d.f.s.l..XW.@Xe.r.6.<.0.6.Q b r n m .XI t.( ( OXt.0X8X XT.oXoXyXxXMX0X XMXxX3X2X X!.0._ S n v S ^ ^.yXXXU.J.{.pX).2.C J.+Xl.e.1.",
"g.].j.'.).W.;XW.<.6.<.q.6.Q s b I m .XC t.Y.) K.Y.5XoX7XU.oXoXyXMXrXOX3XxXxXqX2XP.|.9.b C m v v K.5XXX~.U.K.{.pX6XI.B }.g.l.d.<.",
"d.].l.*X{.(.uX*X<.} <.6.q.r.I M m B ).m W.9.W ( 9.5XoX.X7XT.6XXXrXXXoXxXxXqX3X XP.5XU.b b E v J.0XXXXXJ.Q.K.4XpXtX_.S H.+Xl.e.,.",
"].j.l.'..XW.=X[.3.U Q q.E <.oXt.r B /.C e.9.W P.P.0XoXY.wXJ..X6X0XoX5XxXcXeX2X(.P.eXU.r r W Y.3X3X6XL.~ Q.K.9XuXXX).J.H.@Xg.1.[ ",
"[.g.l.[.).W.@X[.<.Y Q <.Z E ( Q q m OXb 0.9.) L.9.6X.Xw.2X~./.rX0X*XwXMX7X7X Xt.L.0XL., < 2 T ^ ^ R T ( J.J.8XuX&XQ.K.^.[.].1.G ",
"].g.g.*XR.`.@X&X>.Z >.q.Z Z Q B - C /.b q.( ! 8.9.6X4XL.R.4X/.yX0XXXeXcX2X2XT.q.L.8XE r < 3 2 4 v m R ^ / J.8XuXtXI.K.{.].e.,.G ",
"'.].z.[.U.R.=X&X<.Z >.`.U U Z r = I OXb 2.~ W ( q.6X|.Q.R..X{.oXrX&XeX4X|. XU.0.P./.R , , < 2 2 c v R ( 8.( 9XtXE.!.I.K.l.7.>.K ",
"'.].z.[.`.`.=X+XQ C <.q.<.B m - - B E.n 3.! W ! 8.6X~.{.^.OXbX/.rX*X3XXX7X2XT.L.U.oXZ 2 2 < 3 2 c , m I.8.^ {.yXXX_.J.Q.f.1.>.G ",
"d.d.d.[.I.e.aX+X>.Z <.2.<.A r , r Z W.M <.! W ! ~ tX|.L.9X!.mXcX8XrXE..X7X2XT.Q.U._.C b 2 b 2 < , < T {.8.E Q.pXyX!.~ .Xg.,.[ G ",
"[.'.l.[.I.q.=X'.2.E <.Q E B s c r Z T.M E ! R ! 8.oX.X9.2X).8XmX8X7X.XT.~.~.T.~.R.(.Z Q n v , < 2 4 Q.J.I.E H.pXuXQ.H.XXg.1.,.G ",
"=X].l.[.8.q.@X'._.E Q U C Z t B s Z W.v Z E E E 9..X5X~.U.4X/.7XmX5XwX( 2X.X.X3XW.E.E zX0.m M _ S R ~ W 2.~ ~ yXuXI.H.&Xd.1.K K ",
"[.=X].@X/ 0.=X&XI.E Q Q Z Z N B Y Z t.v B I I E 9.5X.X4X~ 5XoX/.xXeX~.~.~.!.9X3X0.U.Q dXdX6.<.q.Q E <.W ^ 2.^ XXtXL.I.+Xd.1.Z K "
};
